<svg width="45" height="46" viewBox="0 0 45 46" fill="none" xmlns="http://www.w3.org/2000/svg">
  <path d="M22.517 0.679688C18.1118 0.679687 13.8056 1.98596 10.1428 4.43333C6.4801 6.8807 3.62534 10.3592 1.93957 14.4291C0.253791 18.4989 -0.187285 22.9772 0.672116 27.2977C1.53152 31.6182 3.6528 35.5868 6.7677 38.7017C9.88261 41.8167 13.8512 43.9379 18.1717 44.7973C22.4922 45.6567 26.9706 45.2157 31.0404 43.5299C35.1102 41.8441 38.5887 38.9893 41.0361 35.3266C43.4835 31.6639 44.7898 27.3576 44.7898 22.9525C44.7898 17.0454 42.4432 11.3802 38.2662 7.20324C34.0892 3.02628 28.4241 0.679688 22.517 0.679688ZM35.3542 31.6693C34.7063 31.7604 31.5374 31.6693 31.3729 31.6693C30.5537 31.68 29.7634 31.3671 29.1735 30.7986C28.5053 30.1532 27.908 29.4445 27.255 28.7738C27.0626 28.5679 26.8535 28.3783 26.6298 28.2068C26.1084 27.8069 25.5921 27.8955 25.3466 28.5131C25.1549 29.1778 25.0211 29.8578 24.9467 30.5455C24.9037 31.1681 24.5089 31.5579 23.8103 31.6009C23.3775 31.6237 22.9447 31.6338 22.517 31.6212C20.9579 31.6126 19.4233 31.2335 18.0396 30.5151C16.5421 29.6815 15.2372 28.5413 14.2102 27.1691C12.522 25.0127 11.173 22.6437 9.96825 20.2013C9.90498 20.0773 8.66985 17.4501 8.63948 17.3261C8.52811 16.9135 8.63948 16.5162 8.98116 16.377C9.19883 16.2934 13.2687 16.377 13.337 16.377C13.6398 16.3749 13.9354 16.4692 14.1811 16.6462C14.4268 16.8231 14.6098 17.0737 14.7038 17.3615C15.4568 19.2876 16.4868 21.0935 17.7612 22.7222C17.9397 22.9391 18.1486 23.1292 18.3813 23.2866C18.7129 23.5144 19.0267 23.4359 19.1634 23.0512C19.3255 22.521 19.4208 21.9726 19.4469 21.4187C19.4696 20.3203 19.4468 19.5989 19.3861 18.5005C19.3456 17.7968 19.0976 17.1818 18.0599 16.9819C17.741 16.9236 17.7131 16.6604 17.9181 16.3972C18.3459 15.853 18.9305 15.7645 19.5861 15.7315C20.563 15.6759 21.54 15.7138 22.517 15.7315H22.7296C23.1548 15.73 23.5789 15.7733 23.9951 15.8606C24.2413 15.9109 24.4647 16.0393 24.632 16.2267C24.7994 16.4141 24.9018 16.6506 24.9239 16.9009C24.9742 17.178 24.9954 17.4596 24.9872 17.7412C24.9619 18.9383 24.9037 20.138 24.891 21.3352C24.8793 21.8102 24.9226 22.285 25.0201 22.75C25.1593 23.3878 25.5972 23.5473 26.0325 23.0866C26.5967 22.4925 27.1137 21.8553 27.579 21.1808C28.4035 19.9514 29.083 18.6307 29.6038 17.2451C29.8872 16.5339 30.11 16.377 30.8693 16.377H35.1871C35.4439 16.3724 35.6998 16.4066 35.9464 16.4782C36.0337 16.5011 36.1153 16.5418 36.1861 16.5978C36.257 16.6537 36.3155 16.7237 36.358 16.8033C36.4005 16.8829 36.4262 16.9704 36.4333 17.0603C36.4405 17.1503 36.4289 17.2408 36.3995 17.3261C36.1869 18.2727 35.6756 19.0801 35.134 19.8571C34.2557 21.0998 33.3294 22.3121 32.4309 23.5397C32.3228 23.6984 32.2239 23.8632 32.1348 24.0332C31.7956 24.6457 31.8209 24.9874 32.3119 25.4936C33.0965 26.301 33.9343 27.0552 34.6911 27.8854C35.2461 28.4894 35.7475 29.1407 36.1894 29.8317C36.7285 30.7024 36.3868 31.5225 35.3542 31.6693Z" fill="#FCFCFC" />
</svg>
