<svg width="46" height="46" viewBox="0 0 46 46" fill="none" xmlns="http://www.w3.org/2000/svg">
  <path d="M20.0518 27.0878L27.2867 22.9209L20.0518 18.7539V27.0878Z" fill="#FCFCFC" />
  <path d="M22.8229 0.679688C10.541 0.679688 0.581055 10.6396 0.581055 22.9216C0.581055 35.2035 10.541 45.1634 22.8229 45.1634C35.1049 45.1634 45.0648 35.2035 45.0648 22.9216C45.0648 10.6396 35.1049 0.679688 22.8229 0.679688ZM36.7207 22.9443C36.7207 22.9443 36.7207 27.4551 36.1485 29.6302C35.8278 30.8207 34.8891 31.7595 33.6985 32.0798C31.5234 32.6524 22.8229 32.6524 22.8229 32.6524C22.8229 32.6524 14.1452 32.6524 11.9474 32.0571C10.7568 31.7367 9.81807 30.7977 9.49735 29.6071C8.92481 27.4551 8.92481 22.9216 8.92481 22.9216C8.92481 22.9216 8.92481 18.4111 9.49735 16.236C9.81773 15.0455 10.7795 14.0837 11.9474 13.7633C14.1225 13.1907 22.8229 13.1907 22.8229 13.1907C22.8229 13.1907 31.5234 13.1907 33.6985 13.786C34.8891 14.1064 35.8278 15.0455 36.1485 16.236C36.7438 18.4111 36.7207 22.9443 36.7207 22.9443Z" fill="#FCFCFC" />
</svg>
