<svg width="46" height="46" viewBox="0 0 46 46" fill="none" xmlns="http://www.w3.org/2000/svg">
  <path d="M27.3553 22.9213C27.3553 25.2726 25.4493 27.1785 23.0981 27.1785C20.7468 27.1785 18.8408 25.2726 18.8408 22.9213C18.8408 20.57 20.7468 18.6641 23.0981 18.6641C25.4493 18.6641 27.3553 20.57 27.3553 22.9213Z" fill="#FCFCFC" />
  <path d="M33.0548 15.3892C32.8501 14.8347 32.5236 14.3327 32.0994 13.9207C31.6874 13.4965 31.1858 13.17 30.6309 12.9653C30.1809 12.7906 29.5048 12.5825 28.2596 12.5258C26.9126 12.4644 26.5087 12.4512 23.0986 12.4512C19.6881 12.4512 19.2843 12.4641 17.9376 12.5255C16.6924 12.5825 16.016 12.7906 15.5663 12.9653C15.0114 13.17 14.5095 13.4965 14.0978 13.9207C13.6736 14.3327 13.3471 14.8343 13.1421 15.3892C12.9673 15.8392 12.7593 16.5156 12.7026 17.7608C12.6412 19.1075 12.6279 19.5114 12.6279 22.9219C12.6279 26.332 12.6412 26.7359 12.7026 28.0829C12.7593 29.3281 12.9673 30.0041 13.1421 30.4541C13.3471 31.009 13.6732 31.5106 14.0975 31.9227C14.5095 32.3469 15.0111 32.6734 15.566 32.878C16.016 33.0532 16.6924 33.2612 17.9376 33.3179C19.2843 33.3793 19.6878 33.3922 23.0983 33.3922C26.5091 33.3922 26.9129 33.3793 28.2593 33.3179C29.5045 33.2612 30.1809 33.0532 30.6309 32.878C31.7448 32.4484 32.6251 31.568 33.0548 30.4541C33.2296 30.0041 33.4376 29.3281 33.4946 28.0829C33.5561 26.7359 33.569 26.332 33.569 22.9219C33.569 19.5114 33.5561 19.1075 33.4946 17.7608C33.438 16.5156 33.2299 15.8392 33.0548 15.3892ZM23.0986 29.4798C19.4764 29.4798 16.54 26.5438 16.54 22.9215C16.54 19.2993 19.4764 16.3633 23.0986 16.3633C26.7205 16.3633 29.6569 19.2993 29.6569 22.9215C29.6569 26.5438 26.7205 29.4798 23.0986 29.4798ZM29.9162 17.6366C29.0697 17.6366 28.3835 16.9504 28.3835 16.104C28.3835 15.2575 29.0697 14.5713 29.9162 14.5713C30.7626 14.5713 31.4488 15.2575 31.4488 16.104C31.4485 16.9504 30.7626 17.6366 29.9162 17.6366Z" fill="#FCFCFC" />
  <path d="M23.0993 0.679688C10.8173 0.679688 0.857422 10.6396 0.857422 22.9216C0.857422 35.2035 10.8173 45.1634 23.0993 45.1634C35.3813 45.1634 45.3412 35.2035 45.3412 22.9216C45.3412 10.6396 35.3813 0.679688 23.0993 0.679688ZM35.794 28.1871C35.7322 29.5467 35.516 30.4749 35.2004 31.2874C34.5369 33.003 33.1807 34.3591 31.4651 35.0226C30.653 35.3383 29.7244 35.5541 28.3652 35.6162C27.0032 35.6783 26.5681 35.6933 23.0996 35.6933C19.6308 35.6933 19.196 35.6783 17.8338 35.6162C16.4745 35.5541 15.546 35.3383 14.7338 35.0226C13.8813 34.7019 13.1095 34.1993 12.4715 33.5494C11.8219 32.9117 11.3193 32.1396 10.9986 31.2874C10.6829 30.4752 10.4667 29.5467 10.405 28.1875C10.3422 26.8252 10.3276 26.3901 10.3276 22.9216C10.3276 19.4531 10.3422 19.018 10.4046 17.656C10.4664 16.2964 10.6823 15.3682 10.9979 14.5557C11.3186 13.7036 11.8216 12.9315 12.4715 12.2938C13.1092 11.6438 13.8813 11.1412 14.7335 10.8205C15.546 10.5049 16.4742 10.289 17.8338 10.2269C19.1957 10.1648 19.6308 10.1499 23.0993 10.1499C26.5678 10.1499 27.0029 10.1648 28.3648 10.2272C29.7244 10.289 30.6526 10.5049 31.4651 10.8201C32.3173 11.1409 33.0894 11.6438 33.7275 12.2938C34.377 12.9318 34.88 13.7036 35.2004 14.5557C35.5163 15.3682 35.7322 16.2964 35.7943 17.656C35.8564 19.018 35.871 19.4531 35.871 22.9216C35.871 26.3901 35.8564 26.8252 35.794 28.1871Z" fill="#FCFCFC" />
</svg>
