<svg width="45" height="46" viewBox="0 0 45 46" fill="none" xmlns="http://www.w3.org/2000/svg">
  <path fill-rule="evenodd" clip-rule="evenodd" d="M21.4015 0.679688C21.6212 3.31448 22.0663 12.6228 17.9913 17.6472C14.3723 22.1095 4.55399 22.3681 0 22.2306C0.363733 10.5421 9.73318 1.12287 21.4015 0.679688ZM23.1365 0.680236C22.9168 3.31577 22.4721 12.6231 26.5467 17.6472C30.162 22.1049 39.9635 22.3675 44.5237 22.2311C44.1604 10.5471 34.7983 1.13058 23.1365 0.680236ZM44.5217 23.7049C39.9605 23.5685 30.1614 23.8318 26.5467 28.2888C22.5041 33.2734 22.9101 42.4741 23.1313 45.1923C34.7744 44.7454 44.1263 35.3611 44.5217 23.7049ZM21.4067 45.1929C21.6279 42.4753 22.0342 33.2737 17.9913 28.2888C14.3728 23.8271 4.55696 23.568 0.00206531 23.7053C0.397766 35.3661 9.75712 44.7531 21.4067 45.1929Z" fill="#FCFCFC" />
</svg>
