<svg width="46" height="45" viewBox="0 0 46 45" fill="none" xmlns="http://www.w3.org/2000/svg">
  <path d="M22.8838 44.5626C35.3509 44.5626 45.4522 34.742 45.4522 22.6212C45.4522 10.5003 35.3509 0.679688 22.8838 0.679688C10.4167 0.679688 0.31543 10.5003 0.31543 22.6212C0.31543 34.742 10.4167 44.5626 22.8838 44.5626ZM10.6423 22.1458L32.402 13.989C33.4119 13.6343 34.294 14.2285 33.9668 15.7133L33.9686 15.7114L30.2637 32.6813C29.9891 33.8844 29.2537 34.177 28.225 33.6102L22.5829 29.5675L19.8615 32.1163C19.5606 32.4089 19.3067 32.6557 18.7237 32.6557L19.1243 27.0735L29.581 17.8891C30.0361 17.4997 29.4794 17.2802 28.8795 17.6679L15.9572 25.5778L10.3866 23.8883C9.17728 23.5153 9.15095 22.7126 10.6423 22.1458Z" fill="#FCFCFC" />
</svg>
