<svg width="426" height="74" viewBox="0 0 426 74" fill="none" xmlns="http://www.w3.org/2000/svg">
<path d="M87.165 30.2341C91.1207 30.2341 95.0763 30.2341 99.0319 30.2341C99.0319 43.5867 99.0319 56.9687 99.0319 70.3213C95.0763 70.3213 91.1207 70.3213 87.165 70.3213C87.165 56.9687 87.165 43.5867 87.165 30.2341Z" fill="white"/>
<path d="M104.881 30.2339C116.945 30.2339 129.01 30.2045 141.046 30.2339C141.018 33.5279 141.075 36.822 141.018 40.116C136.978 40.116 132.937 40.0572 128.897 40.1454C128.897 50.1745 128.897 60.2331 128.897 70.2622C124.913 70.2916 120.929 70.3505 116.974 70.2328C117.002 60.1743 116.974 50.1451 117.002 40.0866C112.962 40.0572 108.921 40.0866 104.881 40.0572C104.881 36.822 104.881 33.5279 104.881 30.2339Z" fill="white"/>
<path d="M153.336 30.2634C157.659 30.2046 161.982 30.2634 166.334 30.234C171.193 43.5866 175.968 56.9686 180.8 70.3212C176.646 70.3212 172.493 70.3506 168.311 70.3212C167.69 68.1742 167.096 65.9683 166.418 63.8508C166.305 63.8213 166.107 63.7625 165.994 63.7331C161.643 63.7331 157.292 63.7331 152.941 63.7331C152.291 65.9389 151.698 68.1448 151.076 70.3506C147.036 70.3506 142.967 70.38 138.927 70.3212C143.73 56.9392 148.561 43.616 153.336 30.2634ZM159.694 40.7925C158.281 45.5277 156.953 50.2923 155.512 55.0275C158.309 54.9981 161.135 55.0569 163.932 54.9981C162.491 50.2629 161.248 45.4689 159.694 40.7925Z" fill="white"/>
<path d="M184.615 30.234C188.571 30.234 192.555 30.234 196.51 30.234C196.51 40.322 196.482 50.3805 196.539 60.4685C202.698 60.4391 208.858 60.4685 215.017 60.4391C215.017 63.7331 215.045 67.0271 215.017 70.3212C204.874 70.2918 194.759 70.3212 184.615 70.3212C184.615 56.9686 184.615 43.5866 184.615 30.234Z" fill="white"/>
<path d="M215.016 30.234C227.08 30.234 239.117 30.234 251.181 30.234C251.181 33.528 251.181 36.8221 251.181 40.1161C247.141 40.1455 243.072 40.1161 239.032 40.1161C239.004 50.1746 239.06 60.2332 239.004 70.3212C235.048 70.2623 231.092 70.38 227.137 70.2623C227.165 60.2332 227.137 50.1746 227.137 40.1455C223.096 40.1161 219.028 40.1455 214.987 40.1455C215.016 36.8221 215.016 33.528 215.016 30.234Z" fill="white"/>
<path d="M256.606 30.2339C260.562 30.2633 264.518 30.2045 268.473 30.2633C268.445 34.9102 268.473 39.5866 268.473 44.2335C272.796 44.2629 277.119 44.2335 281.442 44.2335C281.47 39.5572 281.442 34.8808 281.47 30.2045C285.454 30.2045 289.466 30.2045 293.45 30.2045C293.45 43.557 293.45 56.939 293.45 70.2916C289.466 70.2916 285.454 70.2916 281.47 70.2916C281.47 64.88 281.47 59.4978 281.47 54.0862C277.147 54.0568 272.824 54.0862 268.502 54.0862C268.473 59.4684 268.473 64.88 268.502 70.2622C264.546 70.3504 260.59 70.2916 256.635 70.2916C256.606 56.9685 256.606 43.5865 256.606 30.2339Z" fill="white"/>
<path d="M301.333 30.234C311.957 30.2634 322.552 30.2046 333.176 30.2634C333.147 33.1163 333.147 35.9397 333.176 38.7926C326.508 38.822 319.868 38.7926 313.2 38.822C313.2 40.9396 313.172 43.0572 313.228 45.2042C319.388 45.1748 325.547 45.2042 331.706 45.1748C331.706 47.91 331.735 50.6452 331.706 53.3804C325.547 53.351 319.388 53.4099 313.228 53.351C313.172 55.9686 313.2 58.6156 313.2 61.2332C320.037 61.2626 326.875 61.2332 333.713 61.2626C333.741 64.2625 333.684 67.2624 333.741 70.2623C322.948 70.38 312.126 70.2918 301.333 70.3212C301.333 56.9686 301.361 43.5866 301.333 30.234Z" fill="white"/>
<path d="M340.323 30.234C347.669 30.2634 355.015 30.1752 362.362 30.2634C364.848 30.3811 367.419 30.587 369.736 31.6752C372.194 32.881 374.031 35.3515 374.681 38.0868C375.246 40.5279 375.189 43.1454 374.398 45.5277C373.466 48.2041 371.431 50.4099 368.945 51.5864C367.956 52.0275 366.939 52.3217 365.922 52.6452C367.221 53.2334 368.634 53.704 369.595 54.8216C370.753 56.1745 371.912 57.6156 372.674 59.2627C374.511 62.939 376.319 66.6448 378.156 70.3212C373.663 70.3212 369.171 70.3506 364.65 70.2918C362.983 66.9977 361.26 63.7625 359.593 60.4685C358.632 58.7627 357.926 56.851 356.598 55.351C355.468 54.1157 353.744 53.9687 352.19 54.0275C352.19 59.4391 352.19 64.8507 352.19 70.2918C348.234 70.2918 344.251 70.2918 340.295 70.2918C340.323 56.9686 340.323 43.5866 340.323 30.234ZM352.247 38.3809C352.275 41.0573 352.247 43.7631 352.247 46.4395C355.27 46.3806 358.434 46.8218 361.316 45.616C363.266 44.5278 363.69 41.5278 362.305 39.7926C361.429 38.7044 359.988 38.4985 358.689 38.3809C356.541 38.3514 354.394 38.3514 352.247 38.3809Z" fill="white"/>
<path d="M381.858 30.234C387.057 30.234 392.284 30.2634 397.483 30.234C399.489 38.322 401.495 46.41 403.473 54.4981C405.592 46.4395 407.485 38.322 409.491 30.234C414.69 30.234 419.917 30.234 425.116 30.234C425.116 43.5866 425.116 56.9392 425.116 70.3212C421.867 70.3212 418.617 70.3212 415.368 70.3212C415.34 60.292 415.425 50.2335 415.34 40.2043C412.797 50.2335 410.395 60.292 407.909 70.3212C404.97 70.3212 402.004 70.3212 399.065 70.3212C397.285 63.0567 395.505 55.7921 393.725 48.5276C392.991 45.763 392.454 42.9395 391.606 40.2043C391.606 50.2335 391.606 60.2626 391.606 70.2918C388.357 70.2918 385.108 70.2918 381.858 70.2918C381.858 56.9686 381.858 43.5866 381.858 30.234Z" fill="white"/>
<path d="M43.9638 7.70518C45.8004 5.35231 47.3544 2.73473 49.2474 0.440674C49.1909 1.08772 49.2192 1.76417 49.0496 2.3818C48.6258 3.29354 48.1737 4.14646 47.6934 5.02879C47.8912 4.94055 48.315 4.7935 48.5128 4.73468C48.0042 5.94053 47.1283 6.91109 46.4785 8.0287C47.9477 6.85226 48.5128 4.85232 49.9255 3.58765C50.0103 3.61706 50.208 3.70529 50.2928 3.7347C50.5188 3.55824 50.7449 3.38177 50.9992 3.2053C50.8014 3.52883 50.6319 3.88176 50.4341 4.20528C50.5188 4.32292 50.6884 4.58762 50.7731 4.73468C50.5189 5.0582 50.2646 5.38172 50.0103 5.67583L49.9538 4.91114C49.7277 5.58759 49.6712 6.32287 49.756 7.05814C49.0496 8.46987 48.1172 9.73454 47.3826 11.1169C48.428 9.6169 49.5299 8.14635 50.6601 6.73462C50.8862 6.4111 51.2252 6.23463 51.5925 6.1464C50.8862 7.44048 49.8407 8.52869 49.4169 9.94042L49.0496 9.79336C49.1909 10.2345 49.2192 10.7051 49.1344 11.1757C47.9477 12.4698 47.1001 14.058 46.0264 15.4697C45.1505 16.7638 44.1334 17.9696 43.3987 19.3519C45.2635 16.9696 46.874 14.3815 48.7953 12.0874C46.648 16.5285 43.1162 20.0284 40.7993 24.3812C38.9346 27.2341 36.5612 29.6458 34.7246 32.4986C33.2837 34.3221 31.5319 35.8515 30.1757 37.7632C28.2261 40.0278 25.9375 41.969 24.101 44.3513C23.3946 45.3218 22.3775 46.0277 21.8406 47.1159C22.1514 46.91 22.434 46.6747 22.7165 46.41C25.9375 43.2925 28.763 39.7631 31.7862 36.4397C37.7479 29.8516 42.4381 22.2048 47.6652 15.0579C48.9084 13.4403 50.095 11.6757 51.5925 10.2933C50.7166 12.2345 49.1909 13.7344 48.2868 15.6461C49.4734 14.4991 50.208 12.9697 51.2252 11.6757C51.5078 11.6757 51.7903 11.6757 52.0728 11.6757C52.3554 11.2933 52.6662 10.911 53.0052 10.5875C52.7227 11.1463 52.3836 11.7051 52.1011 12.2639L53.2313 11.2933C53.1183 11.6168 52.8922 12.2345 52.7509 12.5286C53.0335 12.2639 53.316 11.9698 53.6268 11.7345C53.4291 12.1757 53.1748 12.5874 52.9205 12.9992L53.5703 12.7345C53.0335 13.2639 52.7792 13.9403 52.6662 14.705C52.0728 15.8226 51.2535 16.7932 50.5754 17.852C49.756 18.9108 49.1344 20.1166 48.2302 21.1166C48.3998 21.0872 48.7106 21.0284 48.8801 20.9989C48.541 21.5283 48.2302 22.0871 47.9194 22.646C49.5299 20.3519 51.2535 18.1167 52.8922 15.8226C53.5138 14.9403 54.3615 14.2932 55.1526 13.6168C55.0396 13.8521 54.8983 14.1168 54.7853 14.3521C54.8418 15.4403 53.9659 16.205 53.5703 17.1461C53.09 18.1755 52.2706 19.0284 51.8186 20.0872C52.8357 18.499 54.0506 17.0579 55.1243 15.5579C55.3503 15.4697 55.8024 15.2932 56.0285 15.205C55.7459 16.352 55.0396 17.3226 54.5875 18.3814C55.4916 17.6167 56.311 16.7049 57.1586 15.852C56.537 16.9991 55.8589 18.0873 55.2656 19.2343C55.6894 18.999 56.0567 18.7343 56.424 18.4402C55.8872 19.2931 55.3503 20.146 54.8418 20.9989L55.2938 21.2048C55.4634 20.5872 56.0002 20.2343 56.424 19.8225C56.0567 21.2342 54.757 22.1166 54.3332 23.4989C53.7398 25.1165 52.5814 26.3811 51.649 27.7635C48.7106 31.7928 45.9981 35.9691 42.8054 39.7926C40.7711 41.9984 39.1041 44.5571 36.985 46.7041C35.657 48.057 34.3008 49.3805 33.0859 50.8217C30.6843 53.3216 28.3109 55.8509 25.881 58.3215C21.8406 61.9978 17.7155 65.6742 13.3078 68.9682C12.3472 69.6741 11.3865 70.4094 10.2563 70.8505C10.8779 69.9388 11.8386 69.527 12.658 68.88C14.7488 67.2624 16.7549 65.5272 18.7609 63.8213C14.9183 66.4095 11.6691 70.1741 7.14836 71.5564L7.48741 70.7917C7.00709 71.027 6.52676 71.2623 6.07469 71.4976C6.55502 71.2035 6.55502 70.9094 6.1312 70.6152C6.41375 70.527 6.69629 70.4682 7.00709 70.38C6.86582 69.7035 7.40265 69.4388 7.85472 69.1741C7.88298 69.0859 7.96774 68.9388 7.99599 68.88C7.17662 69.4388 6.27247 69.9388 5.28357 69.527C5.65088 69.2329 6.01819 68.9682 6.38549 68.6741C5.96168 68.8212 5.53786 68.7918 5.08579 68.6741C5.05754 68.233 5.02928 67.8212 5.00103 67.38C5.1423 67.3212 5.4531 67.2036 5.59437 67.1448C5.59437 66.9683 5.56611 66.6448 5.56611 66.4683C6.52676 65.9095 7.57218 65.4683 8.39155 64.6742C7.00709 65.2625 5.87691 66.5565 4.32292 66.5859C4.2099 66.1154 4.2099 65.4095 3.56005 65.4683C3.58831 65.2919 3.67307 64.9389 3.72958 64.7625C3.89911 64.7919 4.23816 64.8801 4.43594 64.9389C4.2099 64.7625 3.98387 64.6154 3.72958 64.4684C3.47529 64.3801 3.221 64.3213 2.96671 64.2625C3.24925 64.0272 3.5318 63.8213 3.78609 63.586C3.5318 63.586 3.02322 63.586 2.76893 63.586C3.19275 63.1155 3.75783 62.8508 4.29467 62.5272L3.56005 62.3508C4.04038 61.9684 4.49245 61.5861 4.94452 61.2037C4.5207 61.4096 4.06863 61.6449 3.58831 61.7331C3.56005 61.8802 3.47529 62.1155 3.44704 62.2625L2.79718 62.0861C2.9102 62.2037 3.13624 62.4684 3.24925 62.5861C3.16449 62.6449 2.96671 62.7919 2.88195 62.8507C2.74068 62.5861 2.5994 62.3508 2.40162 62.1449C3.27751 61.8802 3.81434 61.0567 4.43594 60.4391C4.60547 60.4979 4.91626 60.6155 5.08579 60.6743L4.57721 60.292C4.80325 60.1449 5.25532 59.8802 5.48135 59.7332C4.91626 59.9391 4.43594 60.2626 3.95561 60.6449C3.78609 60.6155 3.44704 60.5567 3.27751 60.5273C2.74068 60.8214 2.06257 61.4978 1.46923 60.939C2.40162 60.2038 3.47529 59.6155 4.40768 58.8509C3.19275 59.2332 2.03432 59.8214 0.819377 60.0567C1.41272 59.5567 2.11908 59.1744 2.74068 58.7038C2.37337 58.6744 2.00606 58.6744 1.63875 58.645C1.21494 58.9391 0.734614 59.145 0.197781 59.1744C0.423816 58.7626 0.847632 58.5568 1.24319 58.3803C1.04541 58.2921 0.847632 58.1744 0.649851 58.0862C1.01716 57.9685 1.41272 57.8215 1.78003 57.7038C1.75177 57.5274 1.66701 57.2038 1.63875 57.0274C1.55399 56.9686 1.32796 56.8509 1.24319 56.7921C0.932395 56.5862 0.593342 56.4392 0.25429 56.2921C0.875886 55.1451 2.17559 54.8216 3.10798 54.0569C7.17661 50.9981 11.1322 47.7923 14.7205 44.1748C10.9062 47.557 7.20487 51.1158 2.96671 53.8804C2.03432 54.4392 1.13018 55.2921 0 55.1745C0.875886 54.1745 2.14733 53.7333 3.16449 52.9098C12.5167 46.0277 20.3997 37.322 28.0566 28.5576C33.8488 21.5283 38.878 13.9109 44.1334 6.46992C45.1223 5.08761 45.9981 3.61706 47.1001 2.32298C46.5915 4.38174 44.8115 5.76406 43.9638 7.70518ZM51.3947 12.2933C51.0839 12.3815 50.6884 12.7639 50.8579 13.1168C51.197 13.3227 51.9033 12.4403 51.3947 12.2933ZM40.0082 21.4401C41.9013 19.2637 43.4552 16.7932 45.0658 14.3815C43.2857 16.6755 41.647 19.0578 40.0082 21.4401ZM38.1152 29.7928C34.1031 35.0868 29.6954 40.0278 25.1182 44.7924C24.0727 46.0277 22.8295 47.0865 21.8972 48.4394C27.0677 43.1454 32.1818 37.7632 36.7025 31.8516C37.9456 30.2634 39.3301 28.7634 40.319 26.9694C39.3866 27.7341 38.8498 28.8517 38.1152 29.7928ZM36.4199 27.6752C36.1091 27.7341 35.7701 28.4399 36.2221 28.4987C36.5047 28.4399 36.8437 27.7341 36.4199 27.6752ZM30.2039 34.2045C27.6328 37.2926 24.8639 40.1749 22.1797 43.1454C26.7852 38.4396 31.2211 33.528 35.205 28.2635C33.4815 30.1752 31.9557 32.2928 30.2039 34.2045ZM36.3069 29.1458C34.8659 30.8222 33.6227 32.6751 32.1535 34.3221C32.2383 34.2927 32.3513 34.2633 32.436 34.2633C33.764 32.6163 35.1485 30.9693 36.3069 29.1458ZM32.6056 41.7925C33.4532 41.116 34.103 40.2043 34.8094 39.3808C33.9618 40.0867 33.2272 40.9102 32.6056 41.7925ZM33.4532 49.3511C34.6399 48.4688 35.431 47.1747 36.5047 46.1453C35.4028 47.1159 34.4704 48.2629 33.4532 49.3511ZM18.6196 46.4688C18.3654 46.5571 17.998 47.1159 18.4219 47.2335C18.9022 47.3218 19.326 46.2336 18.6196 46.4688ZM24.1575 50.8805C23.5077 51.4099 22.9426 52.0275 22.4622 52.6746C23.0838 52.1452 23.6772 51.5569 24.1575 50.8805ZM14.8336 53.1745C15.4552 53.0275 16.8961 53.0863 16.5288 52.0569C15.8225 52.1157 15.3421 52.704 14.8336 53.1745ZM19.1847 55.6451C18.2241 56.5862 17.0657 57.3509 16.2463 58.4391C18.2806 56.5862 20.3997 54.8804 22.2362 52.8216C21.1625 53.7039 20.2301 54.7627 19.1847 55.6451ZM8.41981 59.9979C7.96774 60.0861 8.08076 60.8214 8.53283 60.5273C8.9849 60.4685 8.90013 59.7038 8.41981 59.9979ZM6.7528 61.2037C6.30073 61.292 6.41375 62.0272 6.86582 61.7625C7.31789 61.6743 7.20487 60.9096 6.7528 61.2037ZM18.9304 63.586C19.6085 63.2919 20.2019 62.8508 20.5975 62.2331C19.8628 62.3802 19.326 62.939 18.9304 63.586Z" fill="#23AC38"/>
<path d="M56.3094 22.6166C57.1005 21.7343 57.6939 20.646 58.6263 19.9402C58.4567 20.3814 58.259 20.7931 58.0329 21.2049C57.0723 22.9695 55.8573 24.5283 54.7837 26.1753C54.7837 26.293 54.8119 26.4988 54.8119 26.6165C52.8624 29.5576 50.4608 32.1457 48.5395 35.1162C47.6071 36.2339 46.7877 37.4691 46.2791 38.8514C44.6969 40.7337 43.1711 42.7043 41.6454 44.6748C32.8865 54.704 23.7321 64.4978 12.9107 72.1152C12.1196 72.6152 11.2154 72.8505 10.4243 73.3505C9.83095 73.6446 9.20936 74.2917 8.53125 73.8505C8.92681 73.5858 9.32237 73.3799 9.74619 73.1446C9.57666 73.1152 9.20935 73.027 9.01157 72.9682C9.8027 71.7623 10.9329 70.8212 12.1761 70.1447C14.2386 68.9389 15.8491 67.1154 17.8269 65.7919C19.9178 64.3508 21.8391 62.7332 23.6756 60.9685C27.4052 57.8215 30.5697 54.0569 34.0167 50.557C40.6 43.6748 46.1943 35.8809 51.7887 28.1458C53.2579 26.2635 54.3034 23.9695 56.3094 22.6166Z" fill="#23AC38"/>
<path d="M70.438 27.2928C70.9466 26.6458 71.2856 25.8223 72.0485 25.4694C71.879 26.5576 71.3704 27.5281 70.8618 28.4987C71.5964 28.0575 72.2745 27.5575 73.0091 27.1164C72.8396 27.7046 72.6983 28.3516 72.331 28.8516C72.1615 29.7045 71.7942 30.4398 71.3986 31.1751C72.105 30.4692 72.5571 29.4398 73.4612 28.9987C72.8113 30.2045 71.7942 31.3221 71.7942 32.7927C70.9466 32.5574 71.5682 34.028 70.777 33.9397C70.438 34.028 70.2402 34.3515 70.0142 34.5868C70.1837 34.6162 70.551 34.6456 70.7205 34.6456C69.2796 36.7632 67.6408 38.7043 66.3976 40.9395C65.0131 43.1159 63.1201 44.91 61.8204 47.1452C61.0575 47.8217 60.0121 48.5864 59.9556 49.6746L59.6165 49.5275L59.7296 49.8511L59.3905 49.8805L59.3623 50.1746C59.108 50.2334 58.8537 50.3216 58.5711 50.4099C58.4581 50.704 58.2886 50.9687 58.0626 51.204C56.6498 52.6157 55.2936 54.0568 54.0787 55.645C54.7568 55.1744 55.2936 54.5274 55.8587 53.9098C56.226 53.9686 55.887 54.5568 55.887 54.7921C56.1413 54.1157 56.9324 53.998 57.2997 53.3804C57.8365 52.2628 59.3057 51.9392 59.5883 50.6157C59.9556 50.351 60.4924 50.1452 60.4077 49.5569C60.5207 49.5569 60.775 49.5864 60.9163 49.6158C61.1423 48.7334 62.1594 48.3511 62.4702 47.4982C62.7245 47.2041 62.9223 46.8511 63.1483 46.4982C62.8658 46.7335 62.555 46.9394 62.216 47.0864C62.2442 46.91 62.3007 46.557 62.329 46.3806C63.2896 45.7041 63.7982 44.5571 64.6176 43.7336C64.6458 43.7336 64.7023 43.7042 64.7306 43.7042L65.0131 43.6453L65.1827 43.5571C65.3804 43.0865 65.3522 42.5277 65.7195 42.116C68.2624 38.6455 70.4945 34.8809 73.3764 31.7339C73.1787 32.1457 72.9526 32.5574 72.6983 32.9397C73.1222 32.7339 73.5742 32.5868 74.0263 32.4986C74.111 32.2339 74.1676 31.9398 74.2523 31.6751C74.2806 32.4103 74.6479 33.1162 74.5349 33.8809C73.885 35.0279 73.1504 36.0867 72.3593 37.1749C71.8507 37.822 71.6812 38.7043 71.0313 39.1749L71.7377 39.3807C71.6529 39.2925 71.4834 39.1161 71.3986 39.0278C72.9244 37.4396 73.885 35.322 75.6085 33.9397C75.5803 34.9985 74.8457 35.7926 74.4501 36.7044C75.1 36.175 75.439 35.0279 76.3714 34.9985C76.0606 35.5867 75.7216 36.175 75.4955 36.822C76.0606 36.3808 76.5409 35.8514 77.0213 35.322C76.7387 35.9985 76.3714 36.6455 76.0041 37.2632C76.2019 37.7337 75.9476 38.1161 75.665 38.4984C75.8911 38.4102 76.3431 38.2337 76.5692 38.1455C75.4955 39.4984 74.9587 41.2042 73.885 42.5277C71.879 45.2629 70.0142 48.1158 67.8668 50.7334C66.6236 52.0863 65.5782 53.6157 64.335 54.998C61.7074 57.6744 59.1645 60.4096 56.5651 63.086C54.7003 64.9389 52.5529 66.5271 50.6882 68.4094C53.3723 66.5859 55.7457 64.2918 58.1191 62.0566C59.334 60.6743 60.6337 59.3802 61.8769 58.0273C66.9909 52.7627 71.1443 46.6453 75.439 40.7042C76.3997 39.8807 77.1625 38.8514 78.0384 37.969C77.3886 39.7337 75.9758 41.0278 75.2412 42.763C73.7155 45.0865 71.9072 47.1747 70.3815 49.5275C69.9859 50.351 69.4491 51.1157 68.8557 51.7922C67.0475 54.1157 65.0696 56.2921 63.0918 58.4685C60.4924 61.1449 57.9778 63.9389 55.2089 66.4094C53.0898 68.3506 50.8012 70.1446 48.4843 71.8505C47.5802 72.3799 46.6478 72.8504 45.6871 73.2328C45.5741 73.174 45.3481 73.0857 45.2351 73.0563C45.3763 73.0269 45.6871 72.9387 45.8284 72.9093C45.8001 72.4681 45.9414 72.0563 46.224 71.7034C45.8284 71.8211 45.0655 72.0269 44.67 72.1152L45.5459 71.6152C45.2351 71.4975 44.896 71.4975 44.5852 71.5564C44.3592 71.4681 43.8788 71.2622 43.6528 71.1446C43.8788 70.9681 44.3309 70.6152 44.5852 70.4387C44.2744 70.4387 43.6246 70.4093 43.3138 70.4093C43.4833 70.2623 43.7941 69.9388 43.9636 69.7917C43.8223 69.8211 43.5681 69.8799 43.4268 69.9093C42.7204 69.5564 43.342 68.7623 43.6246 68.3212C43.3985 68.3506 42.9747 68.4094 42.7487 68.4388C42.4944 67.9976 42.0988 67.5859 42.1553 67.0271L41.901 66.9977C41.9575 66.7035 41.9293 66.4388 41.8163 66.2036C41.9575 66.0859 42.2401 65.88 42.3814 65.7918C42.1271 65.7624 41.6185 65.733 41.3642 65.7036C41.8163 65.3506 42.2966 64.9977 42.5791 64.4683C41.9858 64.586 41.4207 64.7918 40.8556 64.9389C41.2512 64.3507 41.901 63.9977 42.4379 63.5566C41.9576 63.7036 40.9686 63.9977 40.4601 64.1742C40.7144 63.9389 41.2229 63.4977 41.4772 63.2625C41.3077 63.2331 40.9686 63.2036 40.7991 63.2036C40.8839 62.9683 41.0252 62.5272 41.1099 62.3213C40.7144 62.1448 40.3188 61.9978 39.9232 61.8213C40.121 61.6154 40.5166 61.1743 40.7144 60.939C40.4601 60.9684 39.9232 60.9978 39.6689 60.9978C46.7891 56.3803 52.5529 49.9393 58.1756 43.5571C62.442 38.2925 66.1998 32.6456 70.0707 27.0576C70.1272 27.1164 70.3532 27.234 70.438 27.2928ZM71.3139 35.2632C71.9072 34.4691 72.444 33.675 72.9809 32.8515C72.218 33.4986 71.7094 34.3515 71.3139 35.2632ZM66.1716 38.6455C67.2452 37.7926 68.0081 36.5573 68.5449 35.2926C67.5843 36.2338 66.7367 37.3808 66.1716 38.6455ZM58.3734 48.7334C58.7689 48.3217 59.1362 47.8511 59.4753 47.3805C59.108 47.8217 58.7124 48.2629 58.3734 48.7334ZM40.7709 60.9096C41.5337 60.5272 42.2118 59.9978 42.8899 59.439C42.1553 59.8802 41.3925 60.292 40.7709 60.9096ZM44.6135 67.3506C44.1614 67.4388 44.2462 68.1741 44.7265 67.88C45.1786 67.8212 45.0938 67.0565 44.6135 67.3506ZM49.558 68.4682C49.3602 68.6447 49.1907 68.8505 48.9929 69.027C48.9081 69.0858 48.7103 69.1741 48.5973 69.2035L48.4561 69.3505L48.343 69.4976L48.4843 70.174L48.004 69.7917C47.4954 70.1446 46.9586 70.4682 46.4217 70.7917C46.1675 70.9093 45.6871 71.1152 45.4328 71.2034C45.7719 71.3505 46.0827 71.6152 46.45 71.6152C46.9586 71.3799 47.3541 71.027 47.8062 70.674L47.5802 70.2917C47.9757 70.3799 48.343 70.3505 48.7386 70.2917L48.6256 69.8505L48.9364 69.8211C49.0494 69.7917 49.2754 69.7035 49.3602 69.6446C49.445 69.5858 49.5862 69.4388 49.671 69.3799L49.784 69.2035L49.6993 68.7917L50.3491 68.9388C50.1231 68.7917 49.897 68.6447 49.671 68.4976C49.9253 68.3211 50.4339 67.9682 50.6882 67.7623C50.1513 67.6741 49.897 68.2329 49.558 68.4682Z" fill="#E70112"/>
<path d="M60.4077 48.7334C60.9728 48.2628 61.4532 47.6157 62.103 47.2628C61.9052 48.204 61.0011 49.0275 60.21 49.4981C60.2665 49.2922 60.3795 48.9098 60.4077 48.7334Z" fill="#E70112"/>
<path d="M58.6841 50.8805C58.8818 50.6158 59.1926 50.6158 59.4187 50.8511C59.2209 51.0569 58.8536 51.4687 58.6841 51.6746C57.9777 52.2628 57.4126 52.9981 56.7628 53.6157C56.4802 53.9686 56.3954 53.4098 56.3672 53.2039C57.3561 52.7334 57.8082 51.5569 58.6841 50.8805Z" fill="#E70112"/>
</svg>
