<svg width="426" height="74" viewBox="0 0 426 74" fill="none" xmlns="http://www.w3.org/2000/svg"><path d="M87.165 30.234h11.867v40.087H87.165V30.234Zm17.716 0c12.064 0 24.129-.03 36.165 0-.028 3.294.029 6.588-.028 9.882-4.04 0-8.081-.059-12.121.03v30.116c-3.984.03-7.968.088-11.923-.03.028-10.058 0-20.087.028-30.145-4.04-.03-8.081 0-12.121-.03v-9.823Zm48.455.029c4.323-.058 8.646 0 12.998-.029 4.859 13.353 9.634 26.735 14.466 40.087-4.154 0-8.307.03-12.489 0-.621-2.147-1.215-4.353-1.893-6.47-.113-.03-.311-.088-.424-.118h-13.053c-.65 2.206-1.243 4.412-1.865 6.618-4.04 0-8.109.029-12.149-.03 4.803-13.382 9.634-26.705 14.409-40.058Zm6.358 10.53c-1.413 4.735-2.741 9.5-4.182 14.235 2.797-.03 5.623.029 8.42-.03-1.441-4.735-2.684-9.53-4.238-14.206Zm24.921-10.559h11.895c0 10.088-.028 20.146.029 30.234 6.159-.029 12.319 0 18.478-.029 0 3.294.028 6.588 0 9.882-10.143-.03-20.258 0-30.402 0V30.234Zm30.401 0h36.165v9.882c-4.04.03-8.109 0-12.149 0-.028 10.059.028 20.117-.028 30.205-3.956-.059-7.912.059-11.867-.059.028-10.029 0-20.087 0-30.117-4.041-.029-8.109 0-12.15 0 .029-3.323.029-6.617.029-9.911Zm41.59 0c3.956.03 7.912-.03 11.867.03-.028 4.646 0 9.323 0 13.97 4.323.029 8.646 0 12.969 0 .028-4.677 0-9.353.028-14.03h11.98v40.088h-11.98V54.086c-4.323-.03-8.646 0-12.968 0-.029 5.382-.029 10.794 0 16.176-3.956.088-7.912.03-11.867.03-.029-13.324-.029-26.706-.029-40.058Zm44.727 0c10.624.03 21.219-.03 31.843.03a418.099 418.099 0 0 0 0 8.529c-6.668.029-13.308 0-19.976.029 0 2.118-.028 4.235.028 6.382 6.16-.03 12.319 0 18.478-.03 0 2.736.029 5.471 0 8.206-6.159-.029-12.318.03-18.478-.029-.056 2.618-.028 5.265-.028 7.882 6.837.03 13.675 0 20.513.03.028 3-.029 6 .028 9-10.793.117-21.615.029-32.408.058 0-13.352.028-26.734 0-40.087Zm38.99 0c7.346.03 14.692-.059 22.039.03 2.486.117 5.057.323 7.374 1.411 2.458 1.206 4.295 3.677 4.945 6.412.565 2.44.508 5.058-.283 7.44-.932 2.677-2.967 4.883-5.453 6.06-.989.44-2.006.735-3.023 1.058 1.299.588 2.712 1.059 3.673 2.177 1.158 1.352 2.317 2.794 3.079 4.44 1.837 3.677 3.645 7.383 5.482 11.06-4.493 0-8.985.029-13.506-.03-1.667-3.294-3.39-6.53-5.057-9.824-.961-1.705-1.667-3.617-2.995-5.117-1.13-1.235-2.854-1.382-4.408-1.323v16.264h-11.895c.028-13.323.028-26.705.028-40.058Zm11.924 8.147c.028 2.676 0 5.382 0 8.059 3.023-.06 6.187.382 9.069-.824 1.95-1.088 2.374-4.088.989-5.823-.876-1.089-2.317-1.294-3.616-1.412a234.47 234.47 0 0 0-6.442 0Zm29.611-8.147c5.199 0 10.426.03 15.625 0 2.006 8.088 4.012 16.176 5.99 24.264 2.119-8.058 4.012-16.176 6.018-24.264h15.625v40.087h-9.748c-.028-10.029.057-20.087-.028-30.117-2.543 10.03-4.945 20.088-7.431 30.117h-8.844l-5.34-21.793c-.734-2.765-1.271-5.588-2.119-8.324v30.088h-9.748V30.234Z" fill="#fff"/><path d="M43.964 7.705c1.836-2.353 3.39-4.97 5.283-7.264-.056.647-.028 1.323-.197 1.94a46.305 46.305 0 0 1-1.357 2.648c.198-.088.622-.236.82-.294-.509 1.206-1.385 2.176-2.035 3.294 1.47-1.177 2.035-3.177 3.447-4.441.085.03.283.117.368.147.226-.177.452-.353.706-.53-.198.324-.367.677-.565 1 .085.118.254.383.34.53-.255.323-.51.647-.764.94l-.056-.764a4.978 4.978 0 0 0-.198 2.147c-.706 1.412-1.639 2.677-2.373 4.059a82.672 82.672 0 0 1 3.277-4.382c.226-.324.565-.5.933-.589-.707 1.294-1.752 2.383-2.176 3.794l-.367-.147c.14.442.17.912.084 1.383-1.186 1.294-2.034 2.882-3.108 4.294-.876 1.294-1.893 2.5-2.627 3.882 1.864-2.382 3.475-4.97 5.396-7.265-2.147 4.442-5.679 7.941-7.996 12.294-1.864 2.853-4.238 5.265-6.074 8.118-1.441 1.823-3.193 3.352-4.55 5.264-1.949 2.265-4.238 4.206-6.074 6.588-.706.97-1.723 1.677-2.26 2.765a6.65 6.65 0 0 0 .875-.706c3.221-3.117 6.047-6.647 9.07-9.97 5.962-6.588 10.652-14.235 15.88-21.382 1.242-1.618 2.429-3.382 3.927-4.765-.876 1.942-2.402 3.441-3.306 5.353 1.186-1.147 1.921-2.676 2.938-3.97h.848a8.45 8.45 0 0 1 .932-1.088c-.282.558-.621 1.117-.904 1.676l1.13-.97c-.113.323-.339.94-.48 1.235.282-.265.565-.56.876-.794-.198.44-.452.852-.707 1.264l.65-.264c-.537.529-.79 1.205-.904 1.97-.593 1.118-1.412 2.088-2.09 3.147-.82 1.059-1.442 2.265-2.346 3.265.17-.03.48-.089.65-.118-.339.53-.65 1.088-.96 1.647 1.61-2.294 3.334-4.53 4.972-6.823.622-.883 1.47-1.53 2.26-2.206-.112.235-.254.5-.367.735.057 1.088-.82 1.853-1.215 2.794-.48 1.03-1.3 1.882-1.751 2.941 1.017-1.588 2.232-3.03 3.305-4.53l.904-.352c-.282 1.147-.988 2.118-1.44 3.176.904-.764 1.723-1.676 2.57-2.529-.621 1.147-1.3 2.235-1.892 3.382.423-.235.79-.5 1.158-.794-.537.853-1.074 1.706-1.582 2.559l.452.206c.17-.618.706-.97 1.13-1.382-.367 1.411-1.667 2.294-2.09 3.676-.594 1.617-1.753 2.882-2.685 4.265-2.938 4.029-5.65 8.205-8.844 12.029-2.034 2.205-3.7 4.764-5.82 6.911-1.328 1.353-2.684 2.676-3.9 4.118-2.4 2.5-4.774 5.029-7.204 7.5-4.04 3.676-8.166 7.352-12.573 10.646-.96.706-1.921 1.441-3.052 1.882.622-.911 1.583-1.323 2.402-1.97 2.09-1.618 4.097-3.353 6.103-5.059-3.843 2.588-7.092 6.353-11.613 7.735l.34-.764c-.48.235-.961.47-1.413.706.48-.294.48-.589.056-.883.283-.088.565-.147.876-.235-.141-.676.396-.941.848-1.206.028-.088.113-.235.141-.294-.82.559-1.724 1.059-2.712.647.367-.294.734-.559 1.101-.853-.423.147-.847.118-1.3 0-.027-.441-.056-.853-.084-1.294.141-.059.452-.176.593-.235 0-.177-.028-.5-.028-.677.96-.559 2.006-1 2.826-1.794-1.385.588-2.515 1.882-4.07 1.912-.112-.47-.112-1.177-.762-1.118a6.24 6.24 0 0 1 .17-.706c.17.03.508.118.706.177a5.99 5.99 0 0 0-.706-.47 7.312 7.312 0 0 0-.763-.206c.282-.236.565-.442.82-.677H2.768c.424-.47.989-.735 1.526-1.059l-.735-.176c.48-.383.932-.765 1.385-1.147-.424.206-.876.44-1.357.53-.028.146-.113.381-.141.529l-.65-.177c.113.118.34.382.452.5-.085.059-.282.206-.367.265-.141-.265-.283-.5-.48-.706.876-.265 1.412-1.088 2.034-1.706.17.059.48.176.65.235l-.509-.382c.226-.147.678-.412.904-.559-.565.206-1.045.53-1.525.912l-.678-.118c-.537.294-1.215.97-1.809.412.933-.735 2.006-1.324 2.939-2.088-1.215.382-2.374.97-3.589 1.206.594-.5 1.3-.883 1.922-1.353-.368-.03-.735-.03-1.102-.059-.424.294-.904.5-1.441.53.226-.412.65-.618 1.045-.795-.198-.088-.395-.206-.593-.294.367-.117.763-.264 1.13-.382-.028-.177-.113-.5-.141-.677-.085-.058-.311-.176-.396-.235-.31-.206-.65-.353-.989-.5.622-1.147 1.922-1.47 2.854-2.235 4.069-3.059 8.024-6.265 11.613-9.882-3.815 3.382-7.516 6.94-11.754 9.705-.933.56-1.837 1.412-2.967 1.294.876-1 2.147-1.44 3.164-2.264 9.353-6.882 17.236-15.588 24.893-24.352 5.792-7.03 10.821-14.647 16.076-22.088.99-1.382 1.865-2.853 2.967-4.147-.508 2.059-2.288 3.441-3.136 5.382Zm7.43 4.588c-.31.089-.706.47-.536.824.339.206 1.045-.677.537-.824ZM40.009 21.44c1.893-2.176 3.447-4.647 5.058-7.059-1.78 2.294-3.419 4.677-5.058 7.06Zm-1.893 8.353c-4.012 5.294-8.42 10.235-12.997 15-1.045 1.235-2.288 2.294-3.22 3.646 5.17-5.294 10.284-10.676 14.805-16.587 1.243-1.589 2.627-3.089 3.616-4.883-.932.765-1.47 1.883-2.204 2.824Zm-1.695-2.118c-.31.06-.65.765-.198.824.283-.06.622-.765.198-.824Zm-6.216 6.53c-2.571 3.088-5.34 5.97-8.024 8.94 4.605-4.705 9.041-9.617 13.025-14.882-1.724 1.912-3.25 4.03-5.001 5.942Zm6.103-5.06c-1.441 1.677-2.684 3.53-4.154 5.177a.97.97 0 0 1 .283-.059c1.328-1.647 2.712-3.294 3.87-5.117Zm-3.701 12.647c.847-.676 1.497-1.588 2.203-2.411a12.5 12.5 0 0 0-2.203 2.411Zm.847 7.56c1.187-.883 1.978-2.177 3.052-3.207-1.102.97-2.035 2.118-3.052 3.206ZM18.62 46.468c-.255.088-.622.647-.198.764.48.089.904-1 .198-.764Zm5.537 4.411a9.995 9.995 0 0 0-1.695 1.795c.622-.53 1.215-1.118 1.695-1.794Zm-9.323 2.294c.621-.146 2.062-.088 1.695-1.117-.707.059-1.187.647-1.695 1.117Zm4.35 2.471c-.96.941-2.118 1.706-2.938 2.794 2.035-1.853 4.154-3.559 5.99-5.617-1.073.882-2.006 1.94-3.051 2.823ZM8.42 59.998c-.452.088-.34.823.113.53.452-.06.367-.824-.113-.53Zm-1.667 1.206c-.452.088-.34.823.113.559.452-.089.339-.853-.113-.56Zm12.177 2.382c.678-.294 1.272-.735 1.668-1.353-.735.147-1.272.706-1.668 1.353Z" fill="#23AC38"/><path d="M56.31 22.617c.79-.883 1.384-1.971 2.316-2.677-.17.441-.367.853-.593 1.265-.96 1.765-2.176 3.323-3.25 4.97 0 .118.029.324.029.441-1.95 2.942-4.351 5.53-6.273 8.5-.932 1.118-1.751 2.353-2.26 3.735-1.582 1.883-3.108 3.853-4.634 5.824-8.759 10.029-17.913 19.823-28.734 27.44-.791.5-1.696.736-2.487 1.236-.593.294-1.215.94-1.893.5.396-.265.791-.471 1.215-.706a8.646 8.646 0 0 1-.734-.177c.79-1.206 1.92-2.147 3.164-2.823 2.063-1.206 3.673-3.03 5.65-4.353 2.092-1.441 4.013-3.059 5.85-4.824 3.73-3.147 6.894-6.911 10.34-10.411C40.6 43.675 46.195 35.881 51.79 28.146c1.469-1.883 2.514-4.177 4.52-5.53Z" fill="#23AC38"/><path d="M70.438 27.293c.509-.647.848-1.47 1.61-1.824-.169 1.089-.678 2.06-1.186 3.03.734-.441 1.413-.941 2.147-1.383-.17.589-.31 1.236-.678 1.736-.17.852-.537 1.588-.932 2.323.706-.706 1.158-1.735 2.062-2.176-.65 1.206-1.667 2.323-1.667 3.794-.847-.236-.226 1.235-1.017 1.147-.339.088-.537.412-.763.647.17.03.537.059.707.059-1.441 2.117-3.08 4.058-4.323 6.294-1.385 2.176-3.278 3.97-4.578 6.205-.763.677-1.808 1.441-1.864 2.53l-.34-.147.114.323-.34.03-.028.294c-.254.058-.508.147-.79.235a2.36 2.36 0 0 1-.51.794c-1.412 1.412-2.768 2.853-3.983 4.441.678-.47 1.215-1.118 1.78-1.735.367.059.028.647.028.882.254-.676 1.045-.794 1.413-1.412.537-1.117 2.006-1.44 2.288-2.764.368-.265.904-.47.82-1.06.113 0 .367.03.508.06.226-.883 1.243-1.265 1.554-2.118.255-.294.452-.647.678-1a3.884 3.884 0 0 1-.932.588l.113-.705c.96-.677 1.47-1.824 2.289-2.647.028 0 .084-.03.113-.03l.282-.059.17-.088c.197-.47.17-1.03.536-1.441 2.543-3.47 4.776-7.235 7.657-10.382a9.863 9.863 0 0 1-.678 1.206 5.44 5.44 0 0 1 1.328-.441c.085-.265.142-.56.226-.824.029.735.396 1.441.283 2.206-.65 1.147-1.385 2.206-2.176 3.294-.508.647-.678 1.53-1.328 2l.707.206-.34-.353c1.526-1.588 2.487-3.706 4.21-5.088-.028 1.059-.762 1.853-1.158 2.764.65-.529.989-1.676 1.921-1.706-.31.589-.65 1.177-.875 1.824.565-.441 1.045-.97 1.525-1.5-.282.676-.65 1.323-1.017 1.941.198.47-.056.853-.339 1.235l.904-.352c-1.073 1.352-1.61 3.058-2.684 4.382-2.006 2.735-3.87 5.588-6.018 8.205-1.243 1.353-2.289 2.883-3.532 4.265-2.628 2.676-5.17 5.412-7.77 8.088-1.865 1.853-4.012 3.441-5.877 5.323 2.684-1.823 5.058-4.117 7.431-6.352 1.215-1.383 2.515-2.677 3.758-4.03 5.114-5.264 9.267-11.382 13.562-17.323.96-.823 1.724-1.853 2.6-2.735-.65 1.765-2.063 3.059-2.798 4.794-1.525 2.324-3.334 4.412-4.86 6.765a10.143 10.143 0 0 1-1.525 2.264c-1.808 2.324-3.786 4.5-5.764 6.676-2.6 2.677-5.114 5.47-7.883 7.941-2.12 1.942-4.408 3.736-6.725 5.441-.904.53-1.836 1-2.797 1.383a2.87 2.87 0 0 0-.452-.177c.141-.03.452-.117.593-.147a1.723 1.723 0 0 1 .396-1.206c-.396.118-1.158.324-1.554.412l.876-.5c-.31-.117-.65-.117-.96-.059a12.925 12.925 0 0 1-.933-.411c.226-.177.678-.53.932-.706-.31 0-.96-.03-1.271-.03.17-.147.48-.47.65-.617-.142.03-.396.088-.537.117-.707-.353-.085-1.147.198-1.588l-.876.118c-.255-.441-.65-.853-.594-1.412l-.254-.03a1.247 1.247 0 0 0-.085-.793c.142-.118.424-.324.565-.412-.254-.03-.763-.059-1.017-.088.452-.353.933-.706 1.215-1.236-.593.118-1.158.324-1.723.47.395-.587 1.045-.94 1.582-1.381-.48.147-1.47.44-1.978.617.254-.235.763-.676 1.017-.912a5.278 5.278 0 0 0-.678-.058c.085-.236.226-.677.31-.883-.395-.176-.79-.323-1.186-.5.198-.206.594-.647.791-.882-.254.03-.79.059-1.045.059 7.12-4.618 12.884-11.059 18.507-17.44 4.266-5.266 8.024-10.912 11.895-16.5.056.058.282.176.367.235Zm.876 7.97a45.408 45.408 0 0 0 1.667-2.411c-.763.647-1.272 1.5-1.667 2.411Zm-5.142 3.383c1.073-.853 1.836-2.089 2.373-3.353-.96.94-1.808 2.088-2.373 3.352Zm-7.799 10.087c.396-.411.763-.882 1.102-1.352-.367.44-.763.882-1.102 1.352ZM40.771 60.91c.763-.383 1.44-.912 2.119-1.471-.735.441-1.498.853-2.12 1.47Zm3.843 6.44c-.453.089-.368.824.113.53.452-.059.367-.823-.113-.53Zm4.944 1.118c-.198.177-.367.382-.565.559a1.638 1.638 0 0 1-.396.177l-.14.147-.114.147.141.676-.48-.382c-.509.353-1.045.676-1.582 1-.255.117-.735.323-.99.411.34.147.65.412 1.018.412.509-.235.904-.588 1.356-.941l-.226-.382c.396.088.763.058 1.159 0l-.113-.442.31-.029c.113-.03.34-.117.424-.176.085-.06.226-.206.311-.265l.113-.176-.085-.412.65.147-.678-.441c.254-.177.763-.53 1.017-.736-.537-.088-.791.47-1.13.706Z" fill="#E70112"/><path d="M60.408 48.733c.565-.47 1.045-1.117 1.695-1.47-.198.941-1.102 1.765-1.893 2.235.056-.206.17-.588.198-.765Zm-1.724 2.147c.198-.264.509-.264.735-.029a19.45 19.45 0 0 0-.735.824c-.706.588-1.271 1.323-1.921 1.94-.283.354-.368-.205-.396-.411.99-.47 1.441-1.647 2.317-2.324Z" fill="#E70112"/></svg>