<svg width="99" height="98" viewBox="0 0 99 98" fill="none" xmlns="http://www.w3.org/2000/svg">
<circle cx="49.5089" cy="48.5499" r="48.5499" fill="#CE4443"/>
<circle cx="48.9161" cy="10.065" r="6.51279" fill="white"/>
<path fill-rule="evenodd" clip-rule="evenodd" d="M47.1404 19.0328V35.7053C39.7632 36.8446 34.1152 43.2218 34.1152 50.9181C34.1152 59.4199 41.0073 66.312 49.5091 66.312C58.0109 66.312 64.903 59.4199 64.903 50.9181C64.903 43.2215 59.2546 36.8442 51.877 35.7052V19.0327C68.4288 20.2445 81.4809 34.0571 81.4809 50.9182C81.4809 68.5758 67.1666 82.8901 49.509 82.8901C31.8514 82.8901 17.5371 68.5758 17.5371 50.9182C17.5371 34.0573 30.5889 20.2448 47.1404 19.0328Z" fill="white"/>
</svg>
