<svg width="182" height="33" viewBox="0 0 182 33" fill="none" xmlns="http://www.w3.org/2000/svg">
<path d="M16.7682 0.102539L20.3572 11.1486L31.9717 11.1486L22.5754 17.9754L26.1645 29.0214L16.7682 22.1946L7.37187 29.0214L10.9609 17.9754L1.56463 11.1486L13.1791 11.1486L16.7682 0.102539Z" fill="#FFD600"/>
<path d="M54.0683 0.102539L57.7903 11.1486L69.8349 11.1486L60.0906 17.9754L63.8126 29.0214L54.0683 22.1946L44.3239 29.0214L48.0459 17.9754L38.3016 11.1486L50.3463 11.1486L54.0683 0.102539Z" fill="#FFD600"/>
<path d="M91.3688 0.102539L94.9578 11.1486L106.572 11.1486L97.176 17.9754L100.765 29.0214L91.3688 22.1946L81.9725 29.0214L85.5615 17.9754L76.1652 11.1486L87.7797 11.1486L91.3688 0.102539Z" fill="#FFD600"/>
<path d="M128.67 0.102539L132.392 11.1486L144.436 11.1486L134.692 17.9754L138.414 29.0214L128.67 22.1946L118.926 29.0214L122.647 17.9754L112.903 11.1486L124.948 11.1486L128.67 0.102539Z" fill="#FFD600"/>
<path d="M165.97 0.102539L169.559 11.1486L181.174 11.1486L171.778 17.9754L175.367 29.0214L165.97 22.1946L156.574 29.0214L160.163 17.9754L150.767 11.1486L162.381 11.1486L165.97 0.102539Z" fill="#FFD600"/>
</svg>
