<svg width="98" height="98" viewBox="0 0 98 98" fill="none" xmlns="http://www.w3.org/2000/svg">
<path fill-rule="evenodd" clip-rule="evenodd" d="M93.2168 67.607C89.7122 71.222 83.2269 75.4617 73.1529 73.153C56.7509 69.3942 61.3435 47.894 61.3435 47.894L40.0209 82.3382L22.3067 76.1054L25.5871 53.1426L8.32364 75.7421C17.0525 88.6298 31.8121 97.0998 48.5499 97.0998C68.5986 97.0998 85.809 84.9475 93.2168 67.607ZM96.2835 39.6372C92.6405 45.0324 83.1791 58.1086 78.7296 55.4389C72.1688 51.5024 82.338 21.3227 82.338 21.3227L62.6556 14.7619L39.0368 53.1426L42.3172 32.4761L24.603 26.5714L0.875306 57.7749C0.300809 54.7882 0 51.7042 0 48.5499C0 21.7365 21.7365 0 48.5499 0C72.3188 0 92.0983 17.0807 96.2835 39.6372Z" fill="#FFD112"/>
<path fill-rule="evenodd" clip-rule="evenodd" d="M8.32399 75.741L25.5868 53.1424L22.3064 76.1052L40.0206 82.338L61.3432 47.8938C61.3432 47.8938 56.7506 69.394 73.1526 73.1528C83.2286 75.4619 89.7145 71.2201 93.2187 67.6046C95.7176 61.7543 97.1008 55.3135 97.1008 48.5497C97.1008 45.5047 96.8204 42.5252 96.2842 39.6356C92.6419 45.0299 83.1792 58.1086 78.7293 55.4387C72.1685 51.5022 82.3377 21.3225 82.3377 21.3225L62.6553 14.7617L39.0364 53.1424L42.3168 32.4759L24.6027 26.5712L0.875977 57.7734C2.1364 64.327 4.71458 70.4117 8.32399 75.741Z" fill="#10100F"/>
</svg>
